<svg width="161" height="117" viewBox="0 0 161 117" fill="none" xmlns="http://www.w3.org/2000/svg">
<g opacity="0.2">
<path d="M9.324 111H7.364L2.926 104.294V111H0.966V101.214H2.926L7.364 107.934V101.214H9.324V111ZM14.5399 111.126C13.7933 111.126 13.1213 110.963 12.5239 110.636C11.9266 110.3 11.4553 109.829 11.1099 109.222C10.7739 108.615 10.6059 107.915 10.6059 107.122C10.6059 106.329 10.7786 105.629 11.1239 105.022C11.4786 104.415 11.9593 103.949 12.5659 103.622C13.1726 103.286 13.8493 103.118 14.5959 103.118C15.3426 103.118 16.0193 103.286 16.6259 103.622C17.2326 103.949 17.7086 104.415 18.0539 105.022C18.4086 105.629 18.5859 106.329 18.5859 107.122C18.5859 107.915 18.4039 108.615 18.0399 109.222C17.6853 109.829 17.1999 110.3 16.5839 110.636C15.9773 110.963 15.2959 111.126 14.5399 111.126ZM14.5399 109.418C14.8946 109.418 15.2259 109.334 15.5339 109.166C15.8513 108.989 16.1033 108.727 16.2899 108.382C16.4766 108.037 16.5699 107.617 16.5699 107.122C16.5699 106.385 16.3739 105.82 15.9819 105.428C15.5993 105.027 15.1279 104.826 14.5679 104.826C14.0079 104.826 13.5366 105.027 13.1539 105.428C12.7806 105.82 12.5939 106.385 12.5939 107.122C12.5939 107.859 12.7759 108.429 13.1399 108.83C13.5133 109.222 13.9799 109.418 14.5399 109.418ZM22.5256 107.122C22.5256 106.319 22.6889 105.619 23.0156 105.022C23.3423 104.415 23.7949 103.949 24.3736 103.622C24.9523 103.286 25.6149 103.118 26.3616 103.118C27.3229 103.118 28.1163 103.361 28.7416 103.846C29.3763 104.322 29.8009 104.994 30.0156 105.862H27.9016C27.7896 105.526 27.5983 105.265 27.3276 105.078C27.0663 104.882 26.7396 104.784 26.3476 104.784C25.7876 104.784 25.3443 104.989 25.0176 105.4C24.6909 105.801 24.5276 106.375 24.5276 107.122C24.5276 107.859 24.6909 108.433 25.0176 108.844C25.3443 109.245 25.7876 109.446 26.3476 109.446C27.1409 109.446 27.6589 109.091 27.9016 108.382H30.0156C29.8009 109.222 29.3763 109.889 28.7416 110.384C28.1069 110.879 27.3136 111.126 26.3616 111.126C25.6149 111.126 24.9523 110.963 24.3736 110.636C23.7949 110.3 23.3423 109.833 23.0156 109.236C22.6889 108.629 22.5256 107.925 22.5256 107.122ZM34.7305 111.126C33.9838 111.126 33.3118 110.963 32.7145 110.636C32.1171 110.3 31.6458 109.829 31.3005 109.222C30.9645 108.615 30.7965 107.915 30.7965 107.122C30.7965 106.329 30.9691 105.629 31.3145 105.022C31.6691 104.415 32.1498 103.949 32.7565 103.622C33.3631 103.286 34.0398 103.118 34.7865 103.118C35.5331 103.118 36.2098 103.286 36.8165 103.622C37.4231 103.949 37.8991 104.415 38.2445 105.022C38.5991 105.629 38.7765 106.329 38.7765 107.122C38.7765 107.915 38.5945 108.615 38.2305 109.222C37.8758 109.829 37.3905 110.3 36.7745 110.636C36.1678 110.963 35.4865 111.126 34.7305 111.126ZM34.7305 109.418C35.0851 109.418 35.4165 109.334 35.7245 109.166C36.0418 108.989 36.2938 108.727 36.4805 108.382C36.6671 108.037 36.7605 107.617 36.7605 107.122C36.7605 106.385 36.5645 105.82 36.1725 105.428C35.7898 105.027 35.3185 104.826 34.7585 104.826C34.1985 104.826 33.7271 105.027 33.3445 105.428C32.9711 105.82 32.7845 106.385 32.7845 107.122C32.7845 107.859 32.9665 108.429 33.3305 108.83C33.7038 109.222 34.1705 109.418 34.7305 109.418ZM44.3472 103.132C45.2712 103.132 46.0179 103.426 46.5872 104.014C47.1565 104.593 47.4412 105.405 47.4412 106.45V111H45.4812V106.716C45.4812 106.1 45.3272 105.629 45.0192 105.302C44.7112 104.966 44.2912 104.798 43.7592 104.798C43.2179 104.798 42.7885 104.966 42.4712 105.302C42.1632 105.629 42.0092 106.1 42.0092 106.716V111H40.0492V103.244H42.0092V104.21C42.2705 103.874 42.6019 103.613 43.0032 103.426C43.4139 103.23 43.8619 103.132 44.3472 103.132ZM51.4221 104.854V108.606C51.4221 108.867 51.4827 109.059 51.6041 109.18C51.7347 109.292 51.9494 109.348 52.2481 109.348H53.1581V111H51.9261C50.2741 111 49.4481 110.197 49.4481 108.592V104.854H48.5241V103.244H49.4481V101.326H51.4221V103.244H53.1581V104.854H51.4221ZM56.3628 104.448C56.6148 104.037 56.9415 103.715 57.3428 103.482C57.7535 103.249 58.2201 103.132 58.7428 103.132V105.19H58.2248C57.6088 105.19 57.1421 105.335 56.8248 105.624C56.5168 105.913 56.3628 106.417 56.3628 107.136V111H54.4028V103.244H56.3628V104.448ZM59.394 107.094C59.394 106.31 59.548 105.615 59.856 105.008C60.1733 104.401 60.598 103.935 61.13 103.608C61.6713 103.281 62.2733 103.118 62.936 103.118C63.5146 103.118 64.0186 103.235 64.448 103.468C64.8866 103.701 65.2366 103.995 65.498 104.35V103.244H67.472V111H65.498V109.866C65.246 110.23 64.896 110.533 64.448 110.776C64.0093 111.009 63.5006 111.126 62.922 111.126C62.2686 111.126 61.6713 110.958 61.13 110.622C60.598 110.286 60.1733 109.815 59.856 109.208C59.548 108.592 59.394 107.887 59.394 107.094ZM65.498 107.122C65.498 106.646 65.4046 106.24 65.218 105.904C65.0313 105.559 64.7793 105.297 64.462 105.12C64.1446 104.933 63.804 104.84 63.44 104.84C63.076 104.84 62.74 104.929 62.432 105.106C62.124 105.283 61.872 105.545 61.676 105.89C61.4893 106.226 61.396 106.627 61.396 107.094C61.396 107.561 61.4893 107.971 61.676 108.326C61.872 108.671 62.124 108.937 62.432 109.124C62.7493 109.311 63.0853 109.404 63.44 109.404C63.804 109.404 64.1446 109.315 64.462 109.138C64.7793 108.951 65.0313 108.69 65.218 108.354C65.4046 108.009 65.498 107.598 65.498 107.122ZM68.7172 107.122C68.7172 106.319 68.8806 105.619 69.2072 105.022C69.5339 104.415 69.9866 103.949 70.5652 103.622C71.1439 103.286 71.8066 103.118 72.5532 103.118C73.5146 103.118 74.3079 103.361 74.9332 103.846C75.5679 104.322 75.9926 104.994 76.2072 105.862H74.0932C73.9812 105.526 73.7899 105.265 73.5192 105.078C73.2579 104.882 72.9312 104.784 72.5392 104.784C71.9792 104.784 71.5359 104.989 71.2092 105.4C70.8826 105.801 70.7192 106.375 70.7192 107.122C70.7192 107.859 70.8826 108.433 71.2092 108.844C71.5359 109.245 71.9792 109.446 72.5392 109.446C73.3326 109.446 73.8506 109.091 74.0932 108.382H76.2072C75.9926 109.222 75.5679 109.889 74.9332 110.384C74.2986 110.879 73.5052 111.126 72.5532 111.126C71.8066 111.126 71.1439 110.963 70.5652 110.636C69.9866 110.3 69.5339 109.833 69.2072 109.236C68.8806 108.629 68.7172 107.925 68.7172 107.122ZM79.7601 104.854V108.606C79.7601 108.867 79.8208 109.059 79.9421 109.18C80.0728 109.292 80.2874 109.348 80.5861 109.348H81.4961V111H80.2641C78.6121 111 77.7861 110.197 77.7861 108.592V104.854H76.8621V103.244H77.7861V101.326H79.7601V103.244H81.4961V104.854H79.7601ZM85.7088 111.126C85.0742 111.126 84.5048 111.014 84.0008 110.79C83.4968 110.557 83.0955 110.244 82.7968 109.852C82.5075 109.46 82.3488 109.026 82.3208 108.55H84.2948C84.3322 108.849 84.4768 109.096 84.7288 109.292C84.9902 109.488 85.3122 109.586 85.6948 109.586C86.0682 109.586 86.3575 109.511 86.5628 109.362C86.7775 109.213 86.8848 109.021 86.8848 108.788C86.8848 108.536 86.7542 108.349 86.4928 108.228C86.2408 108.097 85.8348 107.957 85.2748 107.808C84.6962 107.668 84.2202 107.523 83.8468 107.374C83.4828 107.225 83.1655 106.996 82.8948 106.688C82.6335 106.38 82.5028 105.965 82.5028 105.442C82.5028 105.013 82.6242 104.621 82.8668 104.266C83.1188 103.911 83.4735 103.631 83.9308 103.426C84.3975 103.221 84.9435 103.118 85.5688 103.118C86.4928 103.118 87.2302 103.351 87.7808 103.818C88.3315 104.275 88.6348 104.896 88.6908 105.68H86.8148C86.7868 105.372 86.6562 105.129 86.4228 104.952C86.1988 104.765 85.8955 104.672 85.5128 104.672C85.1582 104.672 84.8828 104.737 84.6868 104.868C84.5002 104.999 84.4068 105.181 84.4068 105.414C84.4068 105.675 84.5375 105.876 84.7988 106.016C85.0602 106.147 85.4662 106.282 86.0168 106.422C86.5768 106.562 87.0388 106.707 87.4028 106.856C87.7668 107.005 88.0795 107.239 88.3408 107.556C88.6115 107.864 88.7515 108.275 88.7608 108.788C88.7608 109.236 88.6348 109.637 88.3828 109.992C88.1402 110.347 87.7855 110.627 87.3188 110.832C86.8615 111.028 86.3248 111.126 85.7088 111.126ZM92.8717 107.094C92.8717 106.31 93.0257 105.615 93.3337 105.008C93.651 104.401 94.0757 103.935 94.6077 103.608C95.149 103.281 95.751 103.118 96.4137 103.118C96.9924 103.118 97.4964 103.235 97.9257 103.468C98.3644 103.701 98.7144 103.995 98.9757 104.35V103.244H100.95V111H98.9757V109.866C98.7237 110.23 98.3737 110.533 97.9257 110.776C97.487 111.009 96.9784 111.126 96.3997 111.126C95.7464 111.126 95.149 110.958 94.6077 110.622C94.0757 110.286 93.651 109.815 93.3337 109.208C93.0257 108.592 92.8717 107.887 92.8717 107.094ZM98.9757 107.122C98.9757 106.646 98.8824 106.24 98.6957 105.904C98.509 105.559 98.257 105.297 97.9397 105.12C97.6224 104.933 97.2817 104.84 96.9177 104.84C96.5537 104.84 96.2177 104.929 95.9097 105.106C95.6017 105.283 95.3497 105.545 95.1537 105.89C94.967 106.226 94.8737 106.627 94.8737 107.094C94.8737 107.561 94.967 107.971 95.1537 108.326C95.3497 108.671 95.6017 108.937 95.9097 109.124C96.227 109.311 96.563 109.404 96.9177 109.404C97.2817 109.404 97.6224 109.315 97.9397 109.138C98.257 108.951 98.509 108.69 98.6957 108.354C98.8824 108.009 98.9757 107.598 98.9757 107.122ZM104.659 104.448C104.911 104.037 105.238 103.715 105.639 103.482C106.05 103.249 106.516 103.132 107.039 103.132V105.19H106.521C105.905 105.19 105.438 105.335 105.121 105.624C104.813 105.913 104.659 106.417 104.659 107.136V111H102.699V103.244H104.659V104.448ZM115.404 106.954C115.404 107.234 115.385 107.486 115.348 107.71H109.678C109.725 108.27 109.921 108.709 110.266 109.026C110.611 109.343 111.036 109.502 111.54 109.502C112.268 109.502 112.786 109.189 113.094 108.564H115.208C114.984 109.311 114.555 109.927 113.92 110.412C113.285 110.888 112.506 111.126 111.582 111.126C110.835 111.126 110.163 110.963 109.566 110.636C108.978 110.3 108.516 109.829 108.18 109.222C107.853 108.615 107.69 107.915 107.69 107.122C107.69 106.319 107.853 105.615 108.18 105.008C108.507 104.401 108.964 103.935 109.552 103.608C110.14 103.281 110.817 103.118 111.582 103.118C112.319 103.118 112.977 103.277 113.556 103.594C114.144 103.911 114.597 104.364 114.914 104.952C115.241 105.531 115.404 106.198 115.404 106.954ZM113.374 106.394C113.365 105.89 113.183 105.489 112.828 105.19C112.473 104.882 112.039 104.728 111.526 104.728C111.041 104.728 110.63 104.877 110.294 105.176C109.967 105.465 109.767 105.871 109.692 106.394H113.374ZM129.473 103.132C130.425 103.132 131.19 103.426 131.769 104.014C132.357 104.593 132.651 105.405 132.651 106.45V111H130.691V106.716C130.691 106.109 130.537 105.647 130.229 105.33C129.921 105.003 129.501 104.84 128.969 104.84C128.437 104.84 128.012 105.003 127.695 105.33C127.387 105.647 127.233 106.109 127.233 106.716V111H125.273V106.716C125.273 106.109 125.119 105.647 124.811 105.33C124.503 105.003 124.083 104.84 123.551 104.84C123.009 104.84 122.58 105.003 122.263 105.33C121.955 105.647 121.801 106.109 121.801 106.716V111H119.841V103.244H121.801V104.182C122.053 103.855 122.375 103.599 122.767 103.412C123.168 103.225 123.607 103.132 124.083 103.132C124.689 103.132 125.231 103.263 125.707 103.524C126.183 103.776 126.551 104.14 126.813 104.616C127.065 104.168 127.429 103.809 127.905 103.538C128.39 103.267 128.913 103.132 129.473 103.132ZM133.842 107.094C133.842 106.31 133.996 105.615 134.304 105.008C134.621 104.401 135.046 103.935 135.578 103.608C136.119 103.281 136.721 103.118 137.384 103.118C137.962 103.118 138.466 103.235 138.896 103.468C139.334 103.701 139.684 103.995 139.946 104.35V103.244H141.92V111H139.946V109.866C139.694 110.23 139.344 110.533 138.896 110.776C138.457 111.009 137.948 111.126 137.37 111.126C136.716 111.126 136.119 110.958 135.578 110.622C135.046 110.286 134.621 109.815 134.304 109.208C133.996 108.592 133.842 107.887 133.842 107.094ZM139.946 107.122C139.946 106.646 139.852 106.24 139.666 105.904C139.479 105.559 139.227 105.297 138.91 105.12C138.592 104.933 138.252 104.84 137.888 104.84C137.524 104.84 137.188 104.929 136.88 105.106C136.572 105.283 136.32 105.545 136.124 105.89C135.937 106.226 135.844 106.627 135.844 107.094C135.844 107.561 135.937 107.971 136.124 108.326C136.32 108.671 136.572 108.937 136.88 109.124C137.197 109.311 137.533 109.404 137.888 109.404C138.252 109.404 138.592 109.315 138.91 109.138C139.227 108.951 139.479 108.69 139.666 108.354C139.852 108.009 139.946 107.598 139.946 107.122ZM143.165 107.094C143.165 106.31 143.319 105.615 143.627 105.008C143.944 104.401 144.374 103.935 144.915 103.608C145.456 103.281 146.058 103.118 146.721 103.118C147.225 103.118 147.706 103.23 148.163 103.454C148.62 103.669 148.984 103.958 149.255 104.322V100.64H151.243V111H149.255V109.852C149.012 110.235 148.672 110.543 148.233 110.776C147.794 111.009 147.286 111.126 146.707 111.126C146.054 111.126 145.456 110.958 144.915 110.622C144.374 110.286 143.944 109.815 143.627 109.208C143.319 108.592 143.165 107.887 143.165 107.094ZM149.269 107.122C149.269 106.646 149.176 106.24 148.989 105.904C148.802 105.559 148.55 105.297 148.233 105.12C147.916 104.933 147.575 104.84 147.211 104.84C146.847 104.84 146.511 104.929 146.203 105.106C145.895 105.283 145.643 105.545 145.447 105.89C145.26 106.226 145.167 106.627 145.167 107.094C145.167 107.561 145.26 107.971 145.447 108.326C145.643 108.671 145.895 108.937 146.203 109.124C146.52 109.311 146.856 109.404 147.211 109.404C147.575 109.404 147.916 109.315 148.233 109.138C148.55 108.951 148.802 108.69 148.989 108.354C149.176 108.009 149.269 107.598 149.269 107.122ZM160.202 106.954C160.202 107.234 160.184 107.486 160.146 107.71H154.476C154.523 108.27 154.719 108.709 155.064 109.026C155.41 109.343 155.834 109.502 156.338 109.502C157.066 109.502 157.584 109.189 157.892 108.564H160.006C159.782 109.311 159.353 109.927 158.718 110.412C158.084 110.888 157.304 111.126 156.38 111.126C155.634 111.126 154.962 110.963 154.364 110.636C153.776 110.3 153.314 109.829 152.978 109.222C152.652 108.615 152.488 107.915 152.488 107.122C152.488 106.319 152.652 105.615 152.978 105.008C153.305 104.401 153.762 103.935 154.35 103.608C154.938 103.281 155.615 103.118 156.38 103.118C157.118 103.118 157.776 103.277 158.354 103.594C158.942 103.911 159.395 104.364 159.712 104.952C160.039 105.531 160.202 106.198 160.202 106.954ZM158.172 106.394C158.163 105.89 157.981 105.489 157.626 105.19C157.272 104.882 156.838 104.728 156.324 104.728C155.839 104.728 155.428 104.877 155.092 105.176C154.766 105.465 154.565 105.871 154.49 106.394H158.172Z" fill="white"/>
<path fill-rule="evenodd" clip-rule="evenodd" d="M64.6367 7.3335H95.367C106.693 7.3335 113 13.8602 113 25.0435V62.9202C113 74.2868 106.693 80.6668 95.367 80.6668H64.6367C53.49 80.6668 47 74.2868 47 62.9202V25.0435C47 13.8602 53.49 7.3335 64.6367 7.3335ZM65.6261 24.4199V24.3832H76.5858C78.1661 24.3832 79.4495 25.6666 79.4495 27.2396C79.4495 28.8566 78.1661 30.1399 76.5858 30.1399H65.6261C64.0458 30.1399 62.7661 28.8566 62.7661 27.2799C62.7661 25.7032 64.0458 24.4199 65.6261 24.4199ZM65.6261 46.7134H94.3728C95.9495 46.7134 97.2328 45.43 97.2328 43.8534C97.2328 42.2767 95.9495 40.9897 94.3728 40.9897H65.6261C64.0458 40.9897 62.7661 42.2767 62.7661 43.8534C62.7661 45.43 64.0458 46.7134 65.6261 46.7134ZM65.6266 63.4697H94.3732C95.8362 63.3231 96.9399 62.0727 96.9399 60.6097C96.9399 59.1064 95.8362 57.8597 94.3732 57.7131H65.6266C64.5266 57.6031 63.4632 58.1164 62.8766 59.0697C62.2899 59.9864 62.2899 61.1964 62.8766 62.1497C63.4632 63.0664 64.5266 63.6164 65.6266 63.4697Z" fill="white"/>
</g>
</svg>
